<svg xmlns="http://www.w3.org/2000/svg" width="100%" height="100%" viewBox="0 0 1200 400"><defs><linearGradient id="bgGrad" x1="0%" x2="100%" y1="0%" y2="100%"><stop offset="0%" stop-color="#0f0c1b"/><stop offset="50%" stop-color="#1a102f"/><stop offset="100%" stop-color="#090514"/></linearGradient><linearGradient id="accentGrad" x1="0%" x2="100%" y1="0%" y2="0%"><stop offset="0%" stop-color="#ff2a85"/><stop offset="50%" stop-color="#8a2be2"/><stop offset="100%" stop-color="#00f2fe"/></linearGradient><linearGradient id="cardGrad" x1="0%" x2="0%" y1="0%" y2="100%"><stop offset="0%" stop-color="#fff" stop-opacity=".08"/><stop offset="100%" stop-color="#fff" stop-opacity=".02"/></linearGradient><filter id="glow" width="140%" height="140%" x="-20%" y="-20%"><feGaussianBlur result="blur" stdDeviation="12"/><feComposite in="SourceGraphic" in2="blur" operator="over"/></filter><filter id="softGlow" width="140%" height="140%" x="-20%" y="-20%"><feGaussianBlur result="blur" stdDeviation="6"/><feComposite in="SourceGraphic" in2="blur" operator="over"/></filter></defs><style>@keyframes floatOrb1{0%{transform:translate(0,0)}50%{transform:translate(25px,-30px)}}@keyframes floatOrb2{0%{transform:translate(0,0)}50%{transform:translate(-30px,20px)}}@keyframes wavePass{0%{stroke-dashoffset:1000}}@keyframes spinDisc{0%{transform:rotate(0deg)}}.badge-text,.subtitle,.title{font-family:&apos;Segoe UI&apos;,system-ui,-apple-system,sans-serif}.title{font-weight:900;font-size:46px;fill:#fff;letter-spacing:-.5px}.subtitle{font-weight:500;font-size:20px;fill:#d1d5db}.badge-text{font-weight:700;font-size:13px;fill:#fff}.animated-orb1,.animated-orb2{animation:floatOrb1 10s ease-in-out infinite;transform-origin:center}.animated-orb2{animation:floatOrb2 12s ease-in-out infinite}.animated-wave{stroke-dasharray:50 10;animation:wavePass 25s linear infinite}.spinning-disc{animation:spinDisc 20s linear infinite;transform-origin:1020px 200px}</style><rect width="1200" height="400" fill="url(#bgGrad)" rx="16"/><g class="animated-orb1" opacity=".4"><circle cx="200" cy="100" r="180" fill="#8a2be2" filter="url(#glow)"/></g><g class="animated-orb2" opacity=".35"><circle cx="1000" cy="300" r="220" fill="#ff2a85" filter="url(#glow)"/></g><path fill="none" stroke="url(#accentGrad)" stroke-width="3" d="M-100,320 C200,380 400,220 700,340 C1000,460 1100,250 1300,300" class="animated-wave" opacity=".3"/><path fill="none" stroke="#00f2fe" stroke-width="1.5" d="M-100,280 C250,180 450,320 800,200 C1050,100 1150,220 1300,180" class="animated-wave" opacity=".25"/><g class="spinning-disc" opacity=".15"><circle cx="1020" cy="200" r="160" fill="none" stroke="#fff" stroke-dasharray="10 15" stroke-width="2"/><circle cx="1020" cy="200" r="120" fill="none" stroke="url(#accentGrad)" stroke-width="4"/><circle cx="1020" cy="200" r="80" fill="none" stroke="#fff" stroke-dasharray="5 10" stroke-width="1"/></g><rect width="240" height="240" x="860" y="80" fill="url(#cardGrad)" stroke="rgba(255,255,255,0.15)" stroke-width="1.5" backdrop-filter="blur(10px)" rx="20"/><g filter="url(#softGlow)"><circle cx="980" cy="200" r="48" fill="url(#accentGrad)"/><polygon fill="#fff" points="968 180 1002 200 968 220"/></g><g transform="translate(80, 75)"><rect width="280" height="32" fill="rgba(255, 42, 133, 0.15)" stroke="#ff2a85" stroke-width="1.5" rx="16"/><text x="140" y="21" fill="#ff79b8" class="badge-text" text-anchor="middle">🎬 CURATED MEDIA ECOSYSTEM</text></g><text x="80" y="155" class="title">Awesome Digital Video</text><text x="80" y="210" fill="url(#accentGrad)" class="title">Player &amp; Store</text><text x="80" y="260" class="subtitle">Top SaaS Video Storefronts &amp; Open-Source Media Servers</text><g><g transform="translate(80, 298) translate(0,0)"><rect width="140" height="34" fill="rgba(255, 255, 255, 0.06)" stroke="rgba(255, 255, 255, 0.2)" stroke-width="1" rx="8"/><text x="70" y="22" class="badge-text" text-anchor="middle">🍿 SaaS VOD</text></g><g transform="translate(80, 298) translate(152,0)"><rect width="170" height="34" fill="rgba(255, 255, 255, 0.06)" stroke="rgba(255, 255, 255, 0.2)" stroke-width="1" rx="8"/><text x="85" y="22" class="badge-text" text-anchor="middle">🚀 Media Servers</text></g><g transform="translate(80, 298) translate(334,0)"><rect width="170" height="34" fill="rgba(255, 255, 255, 0.06)" stroke="rgba(255, 255, 255, 0.2)" stroke-width="1" rx="8"/><text x="85" y="22" class="badge-text" text-anchor="middle">⚡ Video Players</text></g><g transform="translate(80, 298) translate(516,0)"><rect width="150" height="34" fill="rgba(255, 255, 255, 0.06)" stroke="rgba(255, 255, 255, 0.2)" stroke-width="1" rx="8"/><text x="75" y="22" class="badge-text" text-anchor="middle">🏠 Self-Hosted</text></g></g><rect width="1200" height="6" x="0" y="394" fill="url(#accentGrad)" rx="3"/></svg>